 http://i1306.photobucket.com/albums/s570/zyx55e/44_zpsc46e809d.gif 
http://desibbrg.org/images/36710372553964349374.jpg 
http://desibbrg.org/images/49598536639861555353.png 
http://desibbrg.org/images/88276576438911323876.png 
http://desibbrg.org/images/52445058004827835743.png 
http://desibbrg.org/images/16179600452039622429.png 
http://i1306.photobucket.com/albums/s570/zyx55e/oie_11162011MOJeDGQI_zpsc25b2b81.gif
Video
ID                             : 1
Format                         : AVC
Format/Info                    : Advanced Video Codec
Format profile                 : Main@L1.3
Format settings, CABAC         : Yes
Format settings, ReFrames      : 4 frames
Codec ID                       : avc1
Codec ID/Info                  : Advanced Video Coding
Duration                       : 1h 49mn
Bit rate mode                  : Variable
Bit rate                       : 281 Kbps
Width                          : 352 pixels
Height                         : 172 pixels
Display aspect ratio           : 2.25:1
Frame rate mode                : Variable
Frame rate                     : 25.000 fps
Minimum frame rate             : 1.563 fps
Maximum frame rate             : 25.000 fps
Color space                    : YUV
Chroma subsampling             : 4:2:0
Bit depth                      : 8 bits
Scan type                      : Progressive
Bits/(Pixel*Frame)             : 0.185
Stream size                    : 220 MiB (63%)
Writing library                : x264 core 120
Color primaries                : BT.601 NTSC
Transfer characteristics       : BT.709
Matrix coefficients            : BT.601

Audio
ID                             : 2
Format                         : AAC
Format/Info                    : Advanced Audio Codec
Format profile                 : LC
Codec ID                       : 40
Duration                       : 1h 49mn
Bit rate mode                  : Variable
Bit rate                       : 160 Kbps
Maximum bit rate               : 201 Kbps
Channel(s)                     : 2 channels
Channel positions              : Front: L R
Sampling rate                  : 48.0 KHz
Compression mode               : Lossy
Delay relative to video        : 680ms
Stream size                    : 126 MiB (36%)
Language                       : English
Encoded date                   : UTC 2013-04-12 19:07:42
Tagged date                    : UTC 2013-04-12 19:15:41

[B]Sample in Torrent...[/B]

Ripper : Manojvb

Seeding 24x7... Extreme Seeding...

 
http://i1306.photobucket.com/albums/s570/zyx55e/oie_1117625zVIGKvnK_zpsc8b6e055.gif
